<svg width="180" height="60" viewBox="0 0 180 60" fill="none" xmlns="http://www.w3.org/2000/svg">
<g clip-path="url(#clip0_6_2)">
<path d="M161.89 60C161.817 60 161.743 60 161.743 60C161.743 56.3926 161.743 52.7853 161.743 49.1043C160.937 49.7669 160.277 50.3558 159.617 51.0184C159.91 51.681 159.984 52.3436 159.104 52.7853C158.737 52.4908 158.297 52.1227 157.931 51.7546C153.752 53.1534 149.499 54.5521 145.246 56.0245C145.246 54.5521 145.246 53.1534 145.246 51.7546C139.014 51.7546 132.855 51.7546 126.403 51.7546C124.13 49.3252 121.637 46.7485 119.218 44.2454C119.145 44.319 119.071 44.319 118.925 44.3926C118.925 48.6626 118.925 52.9325 118.925 57.2761C108.44 57.2761 98.1752 57.2761 87.6904 57.2761C87.6904 55.4356 87.6904 53.5951 87.6904 51.8282C68.8473 51.8282 50.0774 51.8282 31.2342 51.8282C31.2342 53.5215 31.2342 55.1411 31.2342 56.7607C25.8819 56.7607 20.6029 56.7607 15.2505 56.7607C15.2505 54.9939 15.2505 53.227 15.2505 51.3865C10.1181 51.3865 5.05906 51.3865 0 51.3865C0 34.0859 0 17.0798 0 0C5.13238 0 10.1181 0 15.3238 0C15.3238 2.28221 15.3238 4.56442 15.3238 6.84663C20.6762 6.84663 25.9552 6.84663 31.3075 6.84663C31.3075 9.12883 31.3075 11.2638 31.3075 13.546C37.9063 13.546 44.4318 13.546 50.9572 13.546C52.277 15.6074 53.5234 17.5951 54.7699 19.5092C56.0163 21.4969 57.2627 23.4847 58.6558 25.6933C58.6558 23.7055 58.6558 22.0859 58.6558 20.3926C53.6701 15.1656 54.7699 7.8773 59.3157 4.1227C61.5886 2.20859 64.2281 1.32515 67.1609 1.54601C70.9735 1.76687 73.833 3.60736 75.9593 6.84663C79.9185 6.84663 83.8045 6.84663 87.8371 6.84663C87.8371 9.12883 87.8371 11.3374 87.8371 13.6196C87.9104 13.6196 87.9104 13.6196 87.9837 13.6196C89.5234 10.0859 91.0631 6.55215 92.6762 2.94479C93.3361 4.34356 93.8493 5.59509 94.4359 6.84663C98.7617 6.84663 103.088 6.84663 107.413 6.84663C109.613 11.1166 111.739 15.3129 113.939 19.5092C114.892 18.8466 115.845 18.2577 116.798 17.6687C116.798 14.0613 116.798 10.454 116.798 6.84663C121.857 6.84663 126.917 6.84663 132.049 6.84663C132.049 8.76074 132.049 10.6012 132.049 12.4417C136.521 12.4417 140.921 12.4417 145.32 12.4417C145.32 11.0429 145.32 9.71779 145.32 8.31902C151.479 6.25767 157.491 4.26994 163.576 2.20859C163.576 5.66871 163.576 8.9816 163.576 12.4417C164.676 12.0736 165.703 11.7055 166.802 11.3374C166.876 10.6012 167.022 9.93865 166.949 9.27607C166.876 7.73006 166.729 6.25767 166.509 4.71166C166.289 3.46012 166.582 2.35583 167.316 1.32515C169.075 2.57669 169.295 2.94479 168.635 4.1227C168.489 4.1227 168.415 4.04908 168.489 4.04908C167.609 6.25767 168.635 8.31902 168.855 10.6012C172.521 9.34969 176.114 8.17178 179.853 6.92025C179.853 7.28834 179.853 7.58282 179.853 7.8773C179.853 14.6503 179.78 21.3497 179.78 28.1227C179.78 31.2883 179.707 34.3804 179.707 37.546C179.707 37.7669 179.927 38.0614 180 38.2822C180 41.0061 180 43.6564 180 46.3804C179.927 46.9693 179.853 47.4847 179.78 48.0736C179.56 51.9755 177.507 54.6994 173.841 55.8773C173.108 56.0982 172.375 56.319 171.715 56.6135C168.415 57.7914 165.116 58.8957 161.89 60ZM151.405 17.9632C152.065 17.816 152.212 17.4479 151.845 16.4908C151.699 16.638 151.552 16.7853 151.479 16.8589C151.405 16.7853 151.332 16.7853 151.332 16.7117C151.772 16.0491 152.212 15.3865 152.725 14.5767C152.285 14.7239 151.919 14.8712 151.552 15.0184C151.479 14.9448 151.479 14.7975 151.405 14.7239C152.065 14.3558 152.652 14.0614 153.312 13.6933C153.238 13.6196 153.018 13.4724 152.798 13.3252C152.798 13.2515 152.872 13.1779 152.872 13.1043C153.312 13.2515 153.678 13.3988 154.118 13.546C154.265 13.3252 154.485 13.0307 154.705 12.7362C154.851 12.9571 154.925 13.1779 155.071 13.3252C157.271 13.2515 158.664 13.9877 159.251 15.6074C159.177 15.8282 159.104 16.1227 159.031 16.4908C159.397 16.4908 159.837 16.638 159.984 16.4908C160.57 15.9018 161.377 15.4601 161.377 14.3558C161.377 11.4847 161.45 8.6135 161.45 5.74233C161.45 5.52147 161.45 5.22699 161.377 4.93252C156.611 6.55215 151.992 8.09816 147.299 9.64417C147.299 12.4417 147.299 15.1656 147.299 17.6687C148.033 18.3313 148.766 18.9202 149.426 19.4356C149.426 19.2147 149.499 18.9202 149.499 18.6258C149.646 18.6258 149.719 18.5521 149.866 18.5521C150.232 19.4356 150.892 20.3926 150.892 21.2761C150.819 23.5583 152.212 25.1043 153.092 27.2393C153.678 26.135 154.191 25.1779 154.705 24.2945C154.558 24.0736 154.411 23.9264 154.338 23.8528C154.558 22.0859 155.804 21.2025 157.124 20.3926C157.051 20.319 156.978 20.319 156.904 20.2454C156.978 19.8037 157.124 19.362 157.271 18.773C156.978 18.6258 156.684 18.4785 156.244 18.2577C156.244 18.6258 156.244 18.8466 156.244 19.0675C155.951 19.2883 155.731 19.4356 155.511 19.5828C155.365 19.5092 155.218 19.362 155.071 19.2883C154.851 19.5828 154.631 19.8773 154.265 20.319C154.265 19.8773 154.191 19.6564 154.191 19.4356C153.898 19.5828 153.605 19.6564 153.312 19.7301C153.238 19.4356 153.165 19.1411 153.092 18.8466C152.872 18.9939 152.725 19.0675 152.505 19.1411C152.432 18.9939 152.432 18.8466 152.432 18.773C152.358 18.6258 152.358 18.4785 152.285 18.3313C151.479 18.6258 151.479 18.6258 151.405 17.9632ZM28.9613 54.8466C28.9613 39.5337 28.9613 24.2945 28.9613 8.9816C25.3686 8.9816 21.8493 8.9816 18.2566 8.9816C18.2566 14.5031 18.2566 19.8773 18.2566 25.3988C16.5703 25.3988 15.0306 25.3988 13.3442 25.3988C13.3442 17.7423 13.3442 10.0859 13.3442 2.42945C9.53157 2.42945 5.86558 2.42945 2.12627 2.42945C2.12627 18.2577 2.12627 34.0859 2.12627 49.9141C5.86558 49.9141 9.60489 49.9141 13.3442 49.9141C13.3442 44.0245 13.3442 38.2086 13.3442 32.3926C14.9572 32.3926 16.5703 32.3926 18.2566 32.3926C18.2566 39.9018 18.2566 47.411 18.2566 54.9202C21.8493 54.8466 25.3686 54.8466 28.9613 54.8466ZM92.6029 8.09816C90.2566 13.8405 87.9837 19.362 85.7108 24.8834C85.6375 24.8834 85.5642 24.8098 85.4908 24.8098C85.4908 19.5828 85.4908 14.3558 85.4908 9.05521C82.4847 9.05521 79.4786 9.05521 76.3992 9.05521C78.0122 13.1779 77.2057 16.7117 74.2729 19.5828C74.2729 29.816 74.2729 39.8282 74.2729 49.9141C78.0122 49.9141 81.7515 49.9141 85.5642 49.9141C85.5642 44.3926 85.5642 39.0184 85.5642 33.4969C87.1039 33.4969 88.4969 33.4969 89.9633 33.4969C89.9633 40.7117 89.9633 47.8528 89.9633 54.9939C93.8493 54.9939 97.5886 54.9939 101.328 54.9939C101.328 46.3067 101.328 37.6196 101.328 28.8589C99.1283 28.8589 97.002 28.8589 94.8758 28.8589C96.1222 26.2822 97.3686 23.8528 98.6151 21.4233C96.6354 17.0061 94.6558 12.6626 92.6029 8.09816ZM46.998 39.4601C46.998 42.9939 46.998 46.454 46.998 49.9141C50.8106 49.9141 54.6232 49.9141 58.4358 49.9141C58.4358 49.6933 58.5092 49.4724 58.5092 49.2515C58.5092 42.5522 58.5092 35.8528 58.5092 29.1534C58.5092 28.7853 58.3625 28.3436 58.1426 28.0491C56.3096 25.1043 54.4033 22.2331 52.5703 19.2883C51.7637 18.0368 50.9572 16.8589 50.224 15.681C43.9185 15.681 37.6864 15.681 31.4542 15.681C31.4542 27.092 31.4542 38.5031 31.4542 49.9141C35.3401 49.9141 39.1528 49.9141 43.0387 49.9141C43.0387 46.3804 43.0387 42.9202 43.0387 39.4601C44.2851 39.4601 45.5316 39.4601 46.998 39.4601ZM112.546 22.8221C110.126 18.184 107.707 13.546 105.36 8.9816C101.768 8.9816 98.1751 8.9816 94.5092 8.9816C94.6558 9.34969 94.8024 9.64417 94.9491 10.0123C98.3951 17.1534 101.841 24.2209 105.287 31.362C105.507 31.8773 105.654 32.3926 105.654 32.9816C105.654 39.9755 105.654 47.0429 105.654 54.0368C105.654 54.4049 105.654 54.6994 105.654 54.9939C109.393 54.9939 112.986 54.9939 116.652 54.9939C116.652 47.4847 116.652 40.0491 116.652 32.3926C120.978 28.1227 125.377 23.7791 129.629 19.5828C129.629 15.9018 129.629 12.4417 129.629 8.9816C126.037 8.9816 122.517 8.9816 118.925 8.9816C118.925 12.2209 118.925 15.3865 118.925 18.5521C116.798 20.0245 114.672 21.4233 112.546 22.8221ZM127.503 49.9141C133.369 49.9141 139.454 49.9141 145.466 49.9141C145.466 37.9141 145.466 25.9877 145.466 14.0614C141.8 14.0614 138.281 14.0614 134.615 14.0614C134.615 22.5276 134.615 30.8466 134.615 39.3129C132.929 39.3129 131.316 39.3129 129.629 39.3129C129.629 33.7914 129.629 28.4172 129.629 22.8221C125.963 26.2822 122.444 29.5951 118.925 32.908C118.925 35.8528 118.925 38.6503 118.925 41.6687C121.711 44.319 124.57 47.0429 127.503 49.9141ZM72.3666 22.7485C68.4807 22.7485 64.668 22.7485 60.7821 22.7485C60.7821 31.8773 60.7821 40.8589 60.7821 49.9141C64.668 49.9141 68.4807 49.9141 72.3666 49.9141C72.3666 40.7853 72.3666 31.8037 72.3666 22.7485ZM166.876 15.9755C164.969 17.0798 165.189 17.816 166.582 18.8466C167.536 19.5828 168.269 20.4663 169.149 21.2761C169.662 21.7178 170.248 22.0859 170.688 22.454C173.475 25.546 175.234 29.3006 176.847 33.1288C176.627 33.3497 176.481 33.5706 176.334 33.7178C176.481 35.7791 176.554 37.6196 176.701 39.6074C177.067 39.4601 177.287 39.3865 177.654 39.2393C177.654 29.5215 177.654 19.8037 177.654 10.0859C174.354 11.1902 170.982 12.2945 167.682 13.3988C167.242 13.9877 166.876 14.5031 166.509 15.0184C166.656 15.2393 166.729 15.6074 166.876 15.9755ZM161.23 35.1902C161.23 32.0245 161.23 28.9325 161.23 25.9141C159.837 24.7362 158.517 25.8405 157.271 25.9141C155.804 27.4601 154.778 29.3742 153.092 30.5521C152.065 29.9632 151.479 29.3006 151.185 28.1227C150.305 24.9571 149.352 21.865 147.373 19.0675C147.373 25.9141 147.373 32.8344 147.373 39.7546C151.992 38.2822 156.538 36.7362 161.23 35.1902ZM66.6477 3.09202C61.5153 3.09202 57.336 7.1411 57.2627 12.2209C57.2627 17.3006 61.3686 21.4233 66.501 21.4233C71.7067 21.4233 75.8859 17.3742 75.8859 12.2945C75.8859 7.21472 71.78 3.16564 66.6477 3.09202ZM156.904 45.4233C158.297 45.2761 159.617 44.5399 161.303 44.908C161.303 42.3313 161.303 39.7546 161.303 37.1043C156.684 38.6503 152.065 40.1963 147.446 41.7423C147.446 45.6442 147.446 49.3988 147.446 53.1534C150.819 52.0491 154.045 50.9448 157.418 49.8405C157.198 48.3681 157.051 46.9693 156.904 45.4233ZM163.796 46.2331C163.796 49.9141 163.796 53.4479 163.796 57.1288C167.242 55.9509 170.615 54.9202 173.914 53.5951C176.407 52.5644 177.8 50.6503 177.727 47.7791C177.654 45.7914 177.727 43.8773 177.8 41.8896C177.8 41.5951 177.8 41.3742 177.727 41.0798C177.654 41.0798 177.58 41.0061 177.434 41.0061C177.287 42.2577 176.921 43.4356 175.674 43.8773C175.381 43.8037 175.161 43.6564 174.868 43.5828C173.988 44.3926 173.035 45.2025 172.155 46.0123C171.275 47.8528 170.322 49.6933 171.495 51.7546C171.128 51.9755 170.908 52.1227 170.542 52.3436C169.662 51.0184 167.902 50.4295 168.269 48.5153C167.829 47.7055 167.462 46.9693 167.096 46.1595C166.069 46.1595 164.969 46.1595 163.796 46.2331ZM164.969 38.2822C165.263 37.2515 165.556 36.2945 165.116 35.2638C164.456 33.7914 164.016 32.319 164.163 30.6994C164.163 30.2577 163.943 29.8896 163.87 29.4479C163.796 29.4479 163.796 29.4479 163.723 29.5215C163.723 34.3067 163.723 39.0184 163.723 43.8773C165.116 43.4356 166.363 42.9939 167.756 42.4785C167.389 41.0798 166.949 39.7546 166.582 38.3558C166.069 38.3558 165.556 38.3558 164.969 38.2822ZM172.301 36.589C171.935 36.8834 171.642 37.1779 171.348 37.4724C171.275 38.7239 171.202 40.0491 171.128 41.4479C172.228 40.8589 173.475 40.9325 174.354 39.9755C173.695 38.7975 173.035 37.7669 172.301 36.589ZM172.301 43.0675C172.228 42.9939 172.155 42.9202 172.155 42.8466C171.715 42.9939 171.348 43.1411 170.835 43.2883C170.835 43.8037 170.908 44.1718 170.908 44.6135C170.982 44.6135 171.055 44.6135 171.128 44.6871C171.495 44.1718 171.862 43.5828 172.301 43.0675Z" fill="#EE9201"/>
<path d="M28.9613 54.8466C25.3686 54.8466 21.8493 54.8466 18.2566 54.8466C18.2566 47.3374 18.2566 39.9018 18.2566 32.319C16.5703 32.319 14.9572 32.319 13.3442 32.319C13.3442 38.135 13.3442 43.9509 13.3442 49.8405C9.6049 49.8405 5.86559 49.8405 2.12628 49.8405C2.12628 34.0123 2.12628 18.2577 2.12628 2.35583C5.86559 2.35583 9.53158 2.35583 13.3442 2.35583C13.3442 10.0123 13.3442 17.6687 13.3442 25.3252C15.0306 25.3252 16.5703 25.3252 18.2566 25.3252C18.2566 19.8037 18.2566 14.3558 18.2566 8.90798C21.8493 8.90798 25.442 8.90798 28.9613 8.90798C28.9613 24.2945 28.9613 39.5337 28.9613 54.8466Z" fill="#020100"/>
<path d="M92.6028 8.09814C94.6558 12.6626 96.6354 17.0797 98.615 21.4969C97.3686 23.9264 96.1955 26.3558 94.8757 28.9325C97.0753 28.9325 99.2016 28.9325 101.328 28.9325C101.328 37.6932 101.328 46.3804 101.328 55.0675C97.5886 55.0675 93.7759 55.0675 89.9633 55.0675C89.9633 47.9264 89.9633 40.7853 89.9633 33.5705C88.4969 33.5705 87.0305 33.5705 85.5641 33.5705C85.5641 39.0184 85.5641 44.4662 85.5641 49.9877C81.7515 49.9877 78.0855 49.9877 74.2729 49.9877C74.2729 39.9018 74.2729 29.8896 74.2729 19.6564C77.2057 16.7853 78.0855 13.2515 76.3992 9.12882C79.4786 9.12882 82.4114 9.12882 85.4908 9.12882C85.4908 14.4294 85.4908 19.6564 85.4908 24.8834C85.5641 24.8834 85.6374 24.957 85.7108 24.957C87.9837 19.2883 90.2566 13.7669 92.6028 8.09814Z" fill="#020100"/>
<path d="M46.998 39.4601C45.5316 39.4601 44.2852 39.4601 42.8921 39.4601C42.8921 42.9202 42.8921 46.3804 42.8921 49.9141C39.0061 49.9141 35.1935 49.9141 31.3076 49.9141C31.3076 38.5031 31.3076 27.1656 31.3076 15.681C37.5397 15.681 43.7719 15.681 50.0774 15.681C50.8106 16.8589 51.6171 18.1104 52.4236 19.2883C54.2566 22.2331 56.163 25.1043 57.9959 28.0491C58.2159 28.3435 58.3625 28.7853 58.3625 29.1534C58.3625 35.8527 58.3625 42.5521 58.3625 49.2515C58.3625 49.4724 58.3625 49.6196 58.2892 49.9141C54.4766 49.9141 50.7373 49.9141 46.8513 49.9141C46.998 46.454 46.998 42.9939 46.998 39.4601ZM47.1446 32.0245C45.7515 29.3006 44.3585 26.7975 42.8921 24.0736C42.8921 26.8712 42.8921 29.4478 42.8921 32.0245C44.3585 32.0245 45.6782 32.0245 47.1446 32.0245Z" fill="#020100"/>
<path d="M112.546 22.8221C114.672 21.4233 116.798 20.0245 118.925 18.5522C118.925 15.3865 118.925 12.2209 118.925 8.9816C122.517 8.9816 126.037 8.9816 129.629 8.9816C129.629 12.4417 129.629 15.9018 129.629 19.5828C125.377 23.7791 120.978 28.1227 116.652 32.3926C116.652 39.9755 116.652 47.4847 116.652 54.9939C112.986 54.9939 109.393 54.9939 105.654 54.9939C105.654 54.6994 105.654 54.3313 105.654 54.0368C105.654 47.0429 105.654 39.9755 105.654 32.9816C105.654 32.4663 105.507 31.8773 105.287 31.362C101.841 24.2209 98.3951 17.0798 94.9491 10.0123C94.8024 9.71779 94.6558 9.42332 94.5092 8.9816C98.1751 8.9816 101.694 8.9816 105.36 8.9816C107.707 13.546 110.126 18.1841 112.546 22.8221Z" fill="#020100"/>
<path d="M127.503 49.9141C124.57 47.1166 121.711 44.319 118.925 41.6687C118.925 38.6503 118.925 35.8528 118.925 32.908C122.444 29.5951 125.963 26.2822 129.629 22.8221C129.629 28.3435 129.629 33.7914 129.629 39.3129C131.316 39.3129 132.929 39.3129 134.615 39.3129C134.615 30.9202 134.615 22.5276 134.615 14.0613C138.281 14.0613 141.8 14.0613 145.466 14.0613C145.466 25.9877 145.466 37.9141 145.466 49.9141C139.454 49.9141 133.369 49.9141 127.503 49.9141Z" fill="#020100"/>
<path d="M72.3666 22.7485C72.3666 31.8037 72.3666 40.8589 72.3666 49.9141C68.4807 49.9141 64.6681 49.9141 60.7821 49.9141C60.7821 40.8589 60.7821 31.8773 60.7821 22.7485C64.6681 22.7485 68.4807 22.7485 72.3666 22.7485Z" fill="#020100"/>
<path d="M166.876 15.9755C166.802 15.6074 166.656 15.2393 166.582 14.9448C166.949 14.4294 167.389 13.9141 167.756 13.3252C171.055 12.2209 174.428 11.1166 177.727 10.0123C177.727 19.8037 177.727 29.5215 177.727 39.1656C177.361 39.3129 177.141 39.3865 176.774 39.5337C176.627 37.546 176.554 35.7055 176.407 33.6442C176.481 33.5705 176.701 33.2761 176.921 33.0552C175.308 29.227 173.621 25.4724 170.762 22.3804C170.248 22.0123 169.662 21.6442 169.222 21.2025C168.342 20.3926 167.609 19.5092 166.656 18.773C165.189 17.7423 164.969 17.0061 166.876 15.9755Z" fill="#020100"/>
<path d="M161.23 35.1902C156.538 36.7362 151.992 38.2822 147.373 39.8282C147.373 32.908 147.373 25.9877 147.373 19.1411C149.352 21.865 150.305 25.0307 151.185 28.1963C151.479 29.3742 152.065 30.0368 153.092 30.6258C154.778 29.3742 155.804 27.4601 157.271 25.9877C158.517 25.9141 159.837 24.8098 161.23 25.9877C161.23 28.9325 161.23 32.0245 161.23 35.1902Z" fill="#020100"/>
<path d="M66.6477 3.09201C71.7801 3.09201 75.886 7.21471 75.886 12.2945C75.886 17.3742 71.7067 21.4969 66.501 21.4233C61.3687 21.4233 57.2628 17.227 57.2628 12.2208C57.3361 7.14109 61.5153 3.09201 66.6477 3.09201ZM74.4929 8.98158C74.5662 8.98158 74.5662 9.0552 74.7129 9.12882C74.6395 8.98158 74.6395 8.90796 74.6395 8.83434C73.7597 6.69937 72.1467 5.15336 70.0204 4.34354C70.8269 6.47851 72.5133 7.80367 74.4929 8.98158ZM64.1548 18.4785C64.6681 17.5215 65.108 16.4172 65.6945 15.5337C67.4542 13.1043 69.2872 12.5889 72.1467 13.4724C73.3198 13.8405 74.4196 13.9877 75.3727 12.8098C75.2994 12.1472 75.2261 11.411 75.1528 10.6748C73.0265 10.6748 71.2668 9.93864 69.6538 8.90796C69.2872 8.6871 68.9939 8.31901 68.8473 7.95091C68.334 6.25766 67.3076 4.9325 65.9145 3.90183C65.6945 3.75459 65.3279 3.68097 65.0346 3.53373C66.1344 5.15336 67.8208 6.18404 68.1141 8.31901C64.3748 10.0123 62.2485 12.8098 62.2485 16.9325C61.2953 16.7853 60.7821 16.2699 60.5621 15.1656C60.1955 13.3988 60.5621 11.8527 61.5886 10.454C62.3951 9.4233 63.1283 8.31901 63.7882 7.21471C64.5947 5.88956 64.3015 5.15336 62.9084 4.26992C62.3218 4.63802 61.7353 5.00612 61.0754 5.44784C61.3687 6.55213 60.8554 7.36195 60.1955 8.09815C59.9023 8.46624 59.6823 8.90796 59.389 9.34968C58.2892 10.8221 58.2159 12.5153 58.5092 14.2086C58.8758 16.2699 59.7556 17.0061 61.8819 17.227C62.0285 17.227 62.1019 17.3006 62.0285 17.3006C62.4685 18.0368 62.7617 18.6994 63.275 19.1411C64.0815 19.8037 65.0346 20.3926 66.0611 21.0552C68.4074 21.2024 70.5336 20.4662 72.5866 18.6258C72.2933 18.6258 72.1467 18.6258 72.0733 18.6258C70.4603 18.8466 68.9206 18.8466 67.4542 17.9632C66.721 17.5215 65.9145 17.5951 65.1813 17.9632C64.888 18.184 64.5214 18.3313 64.1548 18.4785ZM62.1752 18.5521C61.442 18.4049 60.7821 18.184 60.1222 18.0368C60.1222 18.1104 60.0489 18.184 60.0489 18.184C60.7088 18.6994 61.442 19.2883 62.3218 19.9509C62.2485 19.3619 62.2485 18.9939 62.1752 18.5521Z" fill="#020100"/>
<path d="M151.405 17.9632C151.479 18.6258 151.479 18.6258 152.358 18.4785C152.432 18.6258 152.432 18.773 152.505 18.9202C152.505 19.0675 152.578 19.1411 152.578 19.2883C152.725 19.2147 152.945 19.0675 153.165 18.9939C153.238 19.2883 153.312 19.5828 153.385 19.8773C153.678 19.8037 153.898 19.6564 154.265 19.5828C154.265 19.8037 154.265 20.0245 154.338 20.4662C154.631 20.0245 154.851 19.8037 155.145 19.4356C155.291 19.5092 155.438 19.6564 155.585 19.73C155.804 19.5828 156.024 19.4356 156.318 19.2147C156.318 19.0675 156.318 18.8466 156.318 18.4049C156.758 18.6258 157.124 18.773 157.344 18.9202C157.198 19.5092 157.124 19.9509 156.978 20.3926C157.051 20.4662 157.124 20.4662 157.198 20.5399C155.878 21.3497 154.558 22.2331 154.411 24C154.485 24.0736 154.631 24.2208 154.778 24.4417C154.265 25.3251 153.825 26.2086 153.165 27.3865C152.285 25.2515 150.892 23.7055 150.965 21.4233C150.965 20.5399 150.306 19.5828 149.939 18.6994C149.792 18.6994 149.719 18.773 149.572 18.773C149.572 19.0675 149.499 19.362 149.499 19.5828C148.839 18.9939 148.179 18.4785 147.373 17.8159C147.373 15.3129 147.373 12.5889 147.373 9.7914C152.065 8.24539 156.684 6.69937 161.45 5.07974C161.45 5.37422 161.523 5.6687 161.523 5.88956C161.523 8.76072 161.45 11.6319 161.45 14.5031C161.45 15.6074 160.644 16.0491 160.057 16.638C159.91 16.7853 159.47 16.638 159.104 16.638C159.177 16.2699 159.251 15.9754 159.324 15.7546C158.737 14.135 157.344 13.3988 155.145 13.4724C155.071 13.3251 154.925 13.1043 154.778 12.8834C154.558 13.1779 154.411 13.3988 154.191 13.6932C153.825 13.546 153.385 13.3988 152.945 13.2515C152.945 13.3251 152.872 13.3988 152.872 13.4724C153.092 13.6196 153.312 13.7669 153.385 13.8405C152.725 14.2086 152.138 14.5031 151.479 14.8712C151.552 14.9448 151.552 15.092 151.625 15.1656C151.992 15.0184 152.358 14.8712 152.798 14.7239C152.285 15.4601 151.845 16.1963 151.405 16.8589C151.479 16.9325 151.552 16.9325 151.552 17.0061C151.699 16.8589 151.772 16.7853 151.919 16.638C152.212 17.4478 152.065 17.8896 151.405 17.9632Z" fill="#020100"/>
<path d="M156.904 45.4233C157.051 46.9693 157.271 48.3681 157.418 49.8405C154.045 50.9448 150.819 52.0491 147.446 53.1534C147.446 49.3252 147.446 45.5706 147.446 41.7423C152.065 40.1963 156.684 38.6503 161.303 37.1043C161.303 39.7546 161.303 42.3313 161.303 44.908C159.617 44.5399 158.224 45.2761 156.904 45.4233Z" fill="#020100"/>
<path d="M163.796 46.2331C164.969 46.1595 166.069 46.1595 167.096 46.0859C167.536 46.8957 167.902 47.6319 168.269 48.4417C167.902 50.3558 169.662 50.9448 170.542 52.2699C170.835 52.0491 171.055 51.9018 171.495 51.681C170.322 49.6196 171.202 47.7792 172.155 45.9387C173.035 45.1288 173.914 44.319 174.868 43.5092C175.161 43.5828 175.381 43.7301 175.674 43.8037C176.994 43.362 177.287 42.1841 177.434 40.9325C177.507 40.9325 177.58 41.0061 177.727 41.0061C177.727 41.3006 177.8 41.5215 177.8 41.816C177.8 43.8037 177.654 45.7178 177.727 47.7055C177.874 50.5767 176.407 52.5644 173.914 53.5215C170.615 54.8466 167.242 55.8773 163.796 57.0552C163.796 53.4479 163.796 49.9141 163.796 46.2331Z" fill="#020100"/>
<path d="M164.969 38.2822C165.556 38.2822 166.069 38.3558 166.656 38.3558C167.022 39.681 167.389 41.0797 167.829 42.4785C166.436 42.9202 165.116 43.362 163.796 43.8773C163.796 39.0184 163.796 34.2331 163.796 29.5215C163.87 29.5215 163.87 29.5215 163.943 29.4478C164.016 29.8896 164.236 30.3313 164.236 30.6994C164.09 32.319 164.53 33.865 165.189 35.2638C165.556 36.3681 165.189 37.2515 164.969 38.2822Z" fill="#020100"/>
<path d="M172.301 36.589C172.961 37.6933 173.694 38.7975 174.354 39.9755C173.475 40.9325 172.228 40.8589 171.128 41.4479C171.202 40.0491 171.275 38.7239 171.348 37.4724C171.642 37.1779 171.935 36.8834 172.301 36.589Z" fill="#020100"/>
<path d="M172.301 43.0675C171.935 43.5828 171.495 44.1718 171.128 44.6871C171.055 44.6871 170.982 44.6871 170.908 44.6135C170.908 44.1718 170.835 43.8037 170.835 43.2883C171.275 43.1411 171.715 42.9939 172.155 42.8466C172.155 42.9202 172.228 42.9939 172.301 43.0675Z" fill="#020100"/>
<path d="M47.1446 32.0245C45.6782 32.0245 44.2851 32.0245 42.892 32.0245C42.892 29.4478 42.892 26.8712 42.892 24.0736C44.3584 26.7975 45.7515 29.3006 47.1446 32.0245Z" fill="#EE9201"/>
<path d="M64.1548 18.4785C64.5214 18.3313 64.888 18.184 65.2546 18.0368C65.9878 17.6687 66.7943 17.6687 67.5275 18.0368C68.9939 18.9202 70.5336 18.9202 72.1466 18.6994C72.2199 18.6994 72.3666 18.6994 72.6599 18.6994C70.6802 20.5399 68.4806 21.2761 66.1344 21.1288C65.1079 20.4663 64.1548 19.9509 63.3483 19.2147C62.835 18.773 62.5417 18.1104 62.1018 17.3742C62.1751 17.3742 62.0285 17.3742 61.9552 17.3006C59.8289 17.0798 59.0224 16.3436 58.5825 14.2822C58.2892 12.589 58.3625 10.8957 59.4623 9.42331C59.7556 9.05521 59.9755 8.53988 60.2688 8.17178C60.8554 7.36196 61.3686 6.62577 61.1487 5.52147C61.8085 5.07975 62.3951 4.71166 62.9817 4.34356C64.3747 5.22699 64.668 5.96319 63.8615 7.28834C63.2016 8.39264 62.3951 9.49693 61.6619 10.5276C60.5621 11.9264 60.2688 13.546 60.6354 15.2393C60.8554 16.3436 61.3686 16.8589 62.3218 17.0061C62.3951 12.8834 64.5214 10.0859 68.1874 8.39264C67.8941 6.25767 66.2077 5.22699 65.1079 3.60736C65.4012 3.68098 65.7678 3.7546 65.9878 3.90184C67.3808 4.93251 68.4073 6.25767 68.9206 7.95092C69.0672 8.31902 69.3605 8.68712 69.7271 8.90797C71.3401 9.93865 73.0998 10.6748 75.2261 10.6748C75.2994 11.411 75.3727 12.0736 75.446 12.8098C74.4929 13.9877 73.3197 13.8405 72.2199 13.4724C69.3605 12.589 67.5275 13.1043 65.7678 15.5337C65.0346 16.4172 64.668 17.4479 64.1548 18.4785Z" fill="#EE9201"/>
<path d="M74.4928 8.9816C72.5865 7.87731 70.9002 6.47854 69.947 4.34357C72.1466 5.227 73.6863 6.69939 74.5662 8.83436C74.5662 8.90798 74.4928 8.90798 74.4928 8.9816Z" fill="#EE9201"/>
<path d="M62.1752 18.5522C62.2485 18.9939 62.2485 19.362 62.3218 20.0246C61.442 19.362 60.7821 18.773 60.0489 18.2577C60.0489 18.1841 60.1222 18.1104 60.1222 18.1104C60.8554 18.2577 61.5153 18.4049 62.1752 18.5522Z" fill="#EE9201"/>
<path d="M74.5662 8.83435C74.5662 8.90797 74.5662 8.90797 74.6395 9.12883C74.4929 9.05521 74.4929 8.98159 74.4196 8.98159C74.4929 8.90797 74.5662 8.90797 74.5662 8.83435Z" fill="#EE9201"/>
<path d="M151.405 17.9632L151.332 18.0368L151.405 17.9632Z" fill="#EE9201"/>
</g>
<defs>
<clipPath id="clip0_6_2">
<rect width="180" height="60" fill="white"/>
</clipPath>
</defs>
</svg>
