<svg width="70" height="70" viewBox="0 0 70 70" fill="none" xmlns="http://www.w3.org/2000/svg">
<path opacity="0.5" d="M35 35C39.8325 35 43.75 31.0825 43.75 26.25C43.75 21.4175 39.8325 17.5 35 17.5C30.1675 17.5 26.25 21.4175 26.25 26.25C26.25 31.0825 30.1675 35 35 35Z" stroke="#0A0A0B" stroke-width="3.125"/>
<path d="M35 64.1667C51.1083 64.1667 64.1666 51.1083 64.1666 35C64.1666 18.8917 51.1083 5.83334 35 5.83334C18.8917 5.83334 5.83331 18.8917 5.83331 35C5.83331 51.1083 18.8917 64.1667 35 64.1667Z" stroke="#0A0A0B" stroke-width="3.125"/>
<path opacity="0.5" d="M52.4099 58.3333C51.9458 49.8998 49.3637 43.75 34.9997 43.75C20.636 43.75 18.0539 49.8998 17.5897 58.3333" stroke="#0A0A0B" stroke-width="3.125" stroke-linecap="round"/>
</svg>
